TITLE ""
FILE "DISC1Track07.mp3" MP3
  TRACK 01 AUDIO
    TITLE "DISC1Track07_01"
    INDEX 01 00:00:00
  TRACK 02 AUDIO
    TITLE "DISC1Track07_02"
    INDEX 01 00:02:15
  TRACK 03 AUDIO
    TITLE "DISC1Track07_03"
    INDEX 01 00:02:43
  TRACK 04 AUDIO
    TITLE "DISC1Track07_04"
    INDEX 01 00:04:57
  TRACK 05 AUDIO
    TITLE "DISC1Track07_05"
    INDEX 01 00:07:01
  TRACK 06 AUDIO
    TITLE "DISC1Track07_06"
    INDEX 01 00:09:01
  TRACK 07 AUDIO
    TITLE "DISC1Track07_07"
    INDEX 01 00:09:31
  TRACK 08 AUDIO
    TITLE "DISC1Track07_08"
    INDEX 01 00:11:26
  TRACK 09 AUDIO
    TITLE "DISC1Track07_09"
    INDEX 01 00:13:60
  TRACK 10 AUDIO
    TITLE "DISC1Track07_10"
    INDEX 01 00:16:09
  TRACK 11 AUDIO
    TITLE "DISC1Track07_11"
    INDEX 01 00:16:39
  TRACK 12 AUDIO
    TITLE "DISC1Track07_12"
    INDEX 01 00:18:55
  TRACK 13 AUDIO
    TITLE "DISC1Track07_13"
    INDEX 01 00:21:12
  TRACK 14 AUDIO
    TITLE "DISC1Track07_14"
    INDEX 01 00:23:27
  TRACK 15 AUDIO
    TITLE "DISC1Track07_15"
    INDEX 01 00:23:58
  TRACK 16 AUDIO
    TITLE "DISC1Track07_16"
    INDEX 01 00:25:22
  TRACK 17 AUDIO
    TITLE "DISC1Track07_17"
    INDEX 01 00:27:07
  TRACK 18 AUDIO
    TITLE "DISC1Track07_18"
    INDEX 01 00:28:48
  TRACK 19 AUDIO
    TITLE "DISC1Track07_19"
    INDEX 01 00:29:04
  TRACK 20 AUDIO
    TITLE "DISC1Track07_20"
    INDEX 01 00:31:25
  TRACK 21 AUDIO
    TITLE "DISC1Track07_21"
    INDEX 01 00:33:69
  TRACK 22 AUDIO
    TITLE "DISC1Track07_22"
    INDEX 01 00:36:16
  TRACK 23 AUDIO
    TITLE "DISC1Track07_23"
    INDEX 01 00:36:49
  TRACK 24 AUDIO
    TITLE "DISC1Track07_24"
    INDEX 01 00:38:03
  TRACK 25 AUDIO
    TITLE "DISC1Track07_25"
    INDEX 01 00:39:69
  TRACK 26 AUDIO
    TITLE "DISC1Track07_26"
    INDEX 01 00:41:43
  TRACK 27 AUDIO
    TITLE "DISC1Track07_27"
    INDEX 01 00:41:74
  TRACK 28 AUDIO
    TITLE "DISC1Track07_28"
    INDEX 01 00:44:41
  TRACK 29 AUDIO
    TITLE "DISC1Track07_29"
    INDEX 01 00:46:67
  TRACK 30 AUDIO
    TITLE "DISC1Track07_30"
    INDEX 01 00:48:74
  TRACK 31 AUDIO
    TITLE "DISC1Track07_31"
    INDEX 01 00:49:24
  TRACK 32 AUDIO
    TITLE "DISC1Track07_32"
    INDEX 01 00:50:61
  TRACK 33 AUDIO
    TITLE "DISC1Track07_33"
    INDEX 01 00:52:58
  TRACK 34 AUDIO
    TITLE "DISC1Track07_34"
    INDEX 01 00:54:33
  TRACK 35 AUDIO
    TITLE "DISC1Track07_35"
    INDEX 01 00:54:65
  TRACK 36 AUDIO
    TITLE "DISC1Track07_36"
    INDEX 01 00:57:02
  TRACK 37 AUDIO
    TITLE "DISC1Track07_37"
    INDEX 01 00:59:23
  TRACK 38 AUDIO
    TITLE "DISC1Track07_38"
    INDEX 01 01:01:26
  TRACK 39 AUDIO
    TITLE "DISC1Track07_39"
    INDEX 01 01:01:47
  TRACK 40 AUDIO
    TITLE "DISC1Track07_40"
    INDEX 01 01:03:11
  TRACK 41 AUDIO
    TITLE "DISC1Track07_41"
    INDEX 01 01:05:08
  TRACK 42 AUDIO
    TITLE "DISC1Track07_42"
    INDEX 01 01:06:62
  TRACK 43 AUDIO
    TITLE "DISC1Track07_43"
    INDEX 01 01:07:18
  TRACK 44 AUDIO
    TITLE "DISC1Track07_44"
    INDEX 01 01:10:05
  TRACK 45 AUDIO
    TITLE "DISC1Track07_45"
    INDEX 01 01:12:39
  TRACK 46 AUDIO
    TITLE "DISC1Track07_46"
    INDEX 01 01:14:56
  TRACK 47 AUDIO
    TITLE "DISC1Track07_47"
    INDEX 01 01:15:10
  TRACK 48 AUDIO
    TITLE "DISC1Track07_48"
    INDEX 01 01:16:64
  TRACK 49 AUDIO
    TITLE "DISC1Track07_49"
    INDEX 01 01:18:46
  TRACK 50 AUDIO
    TITLE "DISC1Track07_50"
    INDEX 01 01:20:15
  TRACK 51 AUDIO
    TITLE "DISC1Track07_51"
    INDEX 01 01:20:49
  TRACK 52 AUDIO
    TITLE "DISC1Track07_52"
    INDEX 01 01:22:59
  TRACK 53 AUDIO
    TITLE "DISC1Track07_53"
    INDEX 01 01:25:09
  TRACK 54 AUDIO
    TITLE "DISC1Track07_54"
    INDEX 01 01:27:07
  TRACK 55 AUDIO
    TITLE "DISC1Track07_55"
    INDEX 01 01:27:39
  TRACK 56 AUDIO
    TITLE "DISC1Track07_56"
    INDEX 01 01:29:18
  TRACK 57 AUDIO
    TITLE "DISC1Track07_57"
    INDEX 01 01:31:07
  TRACK 58 AUDIO
    TITLE "DISC1Track07_58"
    INDEX 01 01:32:54
  TRACK 59 AUDIO
    TITLE "DISC1Track07_59"
    INDEX 01 01:33:08
  TRACK 60 AUDIO
    TITLE "DISC1Track07_60"
    INDEX 01 01:35:40
  TRACK 61 AUDIO
    TITLE "DISC1Track07_61"
    INDEX 01 01:38:03
  TRACK 62 AUDIO
    TITLE "DISC1Track07_62"
    INDEX 01 01:40:20
  TRACK 63 AUDIO
    TITLE "DISC1Track07_63"
    INDEX 01 01:40:51
  TRACK 64 AUDIO
    TITLE "DISC1Track07_64"
    INDEX 01 01:42:42
  TRACK 65 AUDIO
    TITLE "DISC1Track07_65"
    INDEX 01 01:44:55
  TRACK 66 AUDIO
    TITLE "DISC1Track07_66"
    INDEX 01 01:46:60
  TRACK 67 AUDIO
    TITLE "DISC1Track07_67"
    INDEX 01 01:47:16
  TRACK 68 AUDIO
    TITLE "DISC1Track07_68"
    INDEX 01 01:49:60
  TRACK 69 AUDIO
    TITLE "DISC1Track07_69"
    INDEX 01 01:52:01
  TRACK 70 AUDIO
    TITLE "DISC1Track07_70"
    INDEX 01 01:53:73
  TRACK 71 AUDIO
    TITLE "DISC1Track07_71"
    INDEX 01 01:54:22
  TRACK 72 AUDIO
    TITLE "DISC1Track07_72"
    INDEX 01 01:55:72
  TRACK 73 AUDIO
    TITLE "DISC1Track07_73"
    INDEX 01 01:57:61
  TRACK 74 AUDIO
    TITLE "DISC1Track07_74"
    INDEX 01 01:59:43
  TRACK 75 AUDIO
    TITLE "DISC1Track07_75"
    INDEX 01 01:59:74
  TRACK 76 AUDIO
    TITLE "DISC1Track07_76"
    INDEX 01 02:02:41
  TRACK 77 AUDIO
    TITLE "DISC1Track07_77"
    INDEX 01 02:04:71
  TRACK 78 AUDIO
    TITLE "DISC1Track07_78"
    INDEX 01 02:07:03
  TRACK 79 AUDIO
    TITLE "DISC1Track07_79"
    INDEX 01 02:07:30
  TRACK 80 AUDIO
    TITLE "DISC1Track07_80"
    INDEX 01 02:09:27
  TRACK 81 AUDIO
    TITLE "DISC1Track07_81"
    INDEX 01 02:11:42
  TRACK 82 AUDIO
    TITLE "DISC1Track07_82"
    INDEX 01 02:13:37
